<?xml version="1.0" encoding="utf-8"?>
<!-- Generator: Adobe Illustrator 21.1.0, SVG Export Plug-In . SVG Version: 6.00 Build 0)  -->
<svg version="1.1" id="Layer_1" xmlns="http://www.w3.org/2000/svg" xmlns:xlink="http://www.w3.org/1999/xlink" x="0px" y="0px"
	 viewBox="0 0 46.4 46.4" style="enable-background:new 0 0 46.4 46.4;" xml:space="preserve">
<style type="text/css">
	.st0{opacity:0.59;}
	.st1{fill:#FED217;}
</style>
<g id="calendar_1_" class="st0">
	<g>
		<path class="st1" d="M42.5,4.3h-6.3V1.4c0-0.8-0.6-1.4-1.4-1.4c-0.8,0-1.4,0.6-1.4,1.4v2.9h-8.7V1.4C24.6,0.6,24,0,23.2,0
			c-0.8,0-1.4,0.6-1.4,1.4v2.9H13V1.4C13,0.6,12.4,0,11.6,0c-0.8,0-1.4,0.6-1.4,1.4v2.9H3.9C1.7,4.3,0,6.1,0,8.2v34.3
			c0,2.1,1.7,3.9,3.9,3.9h38.6c2.1,0,3.9-1.7,3.9-3.9V8.2C46.4,6.1,44.6,4.3,42.5,4.3z M43.5,42.5c0,0.5-0.4,1-1,1H3.9
			c-0.5,0-1-0.4-1-1V8.2c0-0.5,0.4-1,1-1h6.3v2.9c0,0.8,0.6,1.4,1.4,1.4c0.8,0,1.4-0.6,1.4-1.4V7.2h8.7v2.9c0,0.8,0.6,1.4,1.4,1.4
			c0.8,0,1.4-0.6,1.4-1.4V7.2h8.7v2.9c0,0.8,0.6,1.4,1.4,1.4c0.8,0,1.4-0.6,1.4-1.4V7.2h6.3c0.5,0,1,0.4,1,1V42.5z"/>
		<rect x="10.1" y="17.4" class="st1" width="5.8" height="4.3"/>
		<rect x="10.1" y="24.6" class="st1" width="5.8" height="4.3"/>
		<rect x="10.1" y="31.9" class="st1" width="5.8" height="4.3"/>
		<rect x="20.3" y="31.9" class="st1" width="5.8" height="4.3"/>
		<rect x="20.3" y="24.6" class="st1" width="5.8" height="4.3"/>
		<rect x="20.3" y="17.4" class="st1" width="5.8" height="4.3"/>
		<rect x="30.4" y="31.9" class="st1" width="5.8" height="4.3"/>
		<rect x="30.4" y="24.6" class="st1" width="5.8" height="4.3"/>
		<rect x="30.4" y="17.4" class="st1" width="5.8" height="4.3"/>
	</g>
</g>
</svg>
